<svg width="15" height="15" viewBox="0 0 15 15" fill="none" xmlns="http://www.w3.org/2000/svg">
<g clip-path="url(#clip0_1018_8597)">
<path d="M11.9854 1.35291C11.9153 1.00234 11.6075 0.75 11.25 0.75C10.8925 0.75 10.5847 1.00234 10.5146 1.35291L10.3357 2.24733C10.2763 2.54423 10.0442 2.7763 9.74733 2.83568L8.85291 3.01456C8.50235 3.08468 8.25 3.39249 8.25 3.75C8.25 4.10751 8.50235 4.41532 8.85291 4.48544L9.74733 4.66432C10.0442 4.7237 10.2763 4.95577 10.3357 5.25267L10.5146 6.14709C10.5847 6.49766 10.8925 6.75 11.25 6.75C11.6075 6.75 11.9153 6.49766 11.9854 6.14709L12.1643 5.25267C12.2237 4.95577 12.4558 4.7237 12.7527 4.66432L13.6471 4.48544C13.9977 4.41532 14.25 4.10751 14.25 3.75C14.25 3.39249 13.9977 3.08468 13.6471 3.01456L12.7527 2.83568C12.4558 2.7763 12.2237 2.54423 12.1643 2.24733L11.9854 1.35291Z" fill="#D98C33"/>
<path d="M5.21151 4.26283C5.10943 3.95657 4.82282 3.75 4.5 3.75C4.17718 3.75 3.89057 3.95657 3.78849 4.26283L3.27566 5.80132C3.20101 6.02527 3.02527 6.20101 2.80132 6.27566L1.26283 6.78849C0.956573 6.89057 0.75 7.17718 0.75 7.5C0.75 7.82282 0.956573 8.10943 1.26283 8.21151L2.80132 8.72434C3.02527 8.79899 3.20101 8.97473 3.27566 9.19868L3.78849 10.7372C3.89057 11.0434 4.17718 11.25 4.5 11.25C4.82282 11.25 5.10943 11.0434 5.21151 10.7372L5.72434 9.19868C5.79899 8.97473 5.97473 8.79899 6.19868 8.72434L7.73717 8.21151C8.04343 8.10943 8.25 7.82282 8.25 7.5C8.25 7.17718 8.04343 6.89057 7.73717 6.78849L6.19868 6.27566C5.97473 6.20101 5.79899 6.02527 5.72434 5.80132L5.21151 4.26283Z" fill="#D98C33"/>
<path d="M10.4615 10.2628C10.3594 9.95657 10.0728 9.75 9.75 9.75C9.42718 9.75 9.14057 9.95657 9.03849 10.2628L8.90066 10.6763C8.82601 10.9003 8.65027 11.076 8.42632 11.1507L8.01283 11.2885C7.70657 11.3906 7.5 11.6772 7.5 12C7.5 12.3228 7.70657 12.6094 8.01283 12.7115L8.42632 12.8493C8.65027 12.924 8.82601 13.0997 8.90066 13.3237L9.03849 13.7372C9.14057 14.0434 9.42718 14.25 9.75 14.25C10.0728 14.25 10.3594 14.0434 10.4615 13.7372L10.5993 13.3237C10.674 13.0997 10.8497 12.924 11.0737 12.8493L11.4872 12.7115C11.7934 12.6094 12 12.3228 12 12C12 11.6772 11.7934 11.3906 11.4872 11.2885L11.0737 11.1507C10.8497 11.076 10.674 10.9003 10.5993 10.6763L10.4615 10.2628Z" fill="#D98C33"/>
</g>
<defs>
<clipPath id="clip0_1018_8597">
<rect width="15" height="15" fill="white"/>
</clipPath>
</defs>
</svg>
