<svg width="15" height="16" viewBox="0 0 15 16" fill="none" xmlns="http://www.w3.org/2000/svg">
<path d="M11.9854 1.85291C11.9153 1.50234 11.6075 1.25 11.25 1.25C10.8925 1.25 10.5847 1.50234 10.5146 1.85291L10.3357 2.74733C10.2763 3.04423 10.0442 3.2763 9.74733 3.33568L8.85291 3.51456C8.50235 3.58468 8.25 3.89249 8.25 4.25C8.25 4.60751 8.50235 4.91532 8.85291 4.98544L9.74733 5.16432C10.0442 5.2237 10.2763 5.45577 10.3357 5.75267L10.5146 6.64709C10.5847 6.99766 10.8925 7.25 11.25 7.25C11.6075 7.25 11.9153 6.99766 11.9854 6.64709L12.1643 5.75267C12.2237 5.45577 12.4558 5.2237 12.7527 5.16432L13.6471 4.98544C13.9977 4.91532 14.25 4.60751 14.25 4.25C14.25 3.89249 13.9977 3.58468 13.6471 3.51456L12.7527 3.33568C12.4558 3.2763 12.2237 3.04423 12.1643 2.74733L11.9854 1.85291Z" fill="#D98C33"/>
<path d="M5.21151 4.76283C5.10943 4.45657 4.82282 4.25 4.5 4.25C4.17718 4.25 3.89057 4.45657 3.78849 4.76283L3.27566 6.30132C3.20101 6.52527 3.02527 6.70101 2.80132 6.77566L1.26283 7.28849C0.956573 7.39057 0.75 7.67718 0.75 8C0.75 8.32282 0.956573 8.60943 1.26283 8.71151L2.80132 9.22434C3.02527 9.29899 3.20101 9.47473 3.27566 9.69868L3.78849 11.2372C3.89057 11.5434 4.17718 11.75 4.5 11.75C4.82282 11.75 5.10943 11.5434 5.21151 11.2372L5.72434 9.69868C5.79899 9.47473 5.97473 9.29899 6.19868 9.22434L7.73717 8.71151C8.04343 8.60943 8.25 8.32282 8.25 8C8.25 7.67718 8.04343 7.39057 7.73717 7.28849L6.19868 6.77566C5.97473 6.70101 5.79899 6.52527 5.72434 6.30132L5.21151 4.76283Z" fill="#D98C33"/>
<path d="M10.4615 10.7628C10.3594 10.4566 10.0728 10.25 9.75 10.25C9.42718 10.25 9.14057 10.4566 9.03849 10.7628L8.90066 11.1763C8.82601 11.4003 8.65027 11.576 8.42632 11.6507L8.01283 11.7885C7.70657 11.8906 7.5 12.1772 7.5 12.5C7.5 12.8228 7.70657 13.1094 8.01283 13.2115L8.42632 13.3493C8.65027 13.424 8.82601 13.5997 8.90066 13.8237L9.03849 14.2372C9.14057 14.5434 9.42718 14.75 9.75 14.75C10.0728 14.75 10.3594 14.5434 10.4615 14.2372L10.5993 13.8237C10.674 13.5997 10.8497 13.424 11.0737 13.3493L11.4872 13.2115C11.7934 13.1094 12 12.8228 12 12.5C12 12.1772 11.7934 11.8906 11.4872 11.7885L11.0737 11.6507C10.8497 11.576 10.674 11.4003 10.5993 11.1763L10.4615 10.7628Z" fill="#D98C33"/>
</svg>
